Coordinates
version=1
nRows=7
nColumns=63
inDegrees=yes

Units are S.I. units (second, meters, Newtons, ...)
If the header above contains a line with 'inDegrees', this indicates whether rotational values are in degrees (yes) or radians (no).

endheader
time	pelvis_tilt	pelvis_list	pelvis_rotation	pelvis_tx	pelvis_ty	pelvis_tz	hip_flexion_r	hip_adduction_r	hip_rotation_r	knee_angle_r	knee_angle_r_beta	ankle_angle_r	subtalar_angle_r	mtp_angle_r	hip_flexion_l	hip_adduction_l	hip_rotation_l	knee_angle_l	knee_angle_l_beta	ankle_angle_l	subtalar_angle_l	mtp_angle_l	L5_S1_Flex_Ext	L5_S1_Lat_Bending	L5_S1_axial_rotation	L4_L5_Flex_Ext	L4_L5_Lat_Bending	L4_L5_axial_rotation	L3_L4_Flex_Ext	L3_L4_Lat_Bending	L3_L4_axial_rotation	L2_L3_Flex_Ext	L2_L3_Lat_Bending	L2_L3_axial_rotation	L1_L2_Flex_Ext	L1_L2_Lat_Bending	L1_L2_axial_rotation	L1_T12_Flex_Ext	L1_T12_Lat_Bending	L1_T12_axial_rotation	Abs_r3	Abs_r2	Abs_r1	Abs_t1	Abs_t2	neck_flexion	neck_bending	neck_rotation	arm_flex_r	arm_add_r	arm_rot_r	elbow_flex_r	pro_sup_r	wrist_flex_r	wrist_dev_r	arm_flex_l	arm_add_l	arm_rot_l	elbow_flex_l	pro_sup_l	wrist_flex_l	wrist_dev_l
      4.16949153	      0.03455090	     -3.66453560	     99.38029480	      0.27011233	      0.75187907	      0.86784735	     -3.25950678	      1.68429666	      3.97716433	      1.07570493	      0.01877459	     17.89950124	     -5.95008495	      0.00000000	     -1.73799588	      0.04910316	      3.91071102	      3.62610845	      0.06328753	     20.40123209	     -5.44364399	      0.00000000	     -0.17732856	      0.22406706	     -0.01666233	     -0.32931686	      0.29800918	     -0.01770373	     -0.29133309	      0.54479664	     -0.01770373	     -0.20266881	      0.54479664	     -0.01457954	     -0.16466730	      0.45691754	     -0.01353815	     -0.10132554	      0.34707987	     -0.01249675	     -1.26664015	      2.53469135	     -0.09267090	      0.00000000	      0.00000000	     20.81419859	     -2.07923990	     -1.10295112	      6.98675050	    -12.52765019	    105.12126541	     16.85597533	      8.72394787	     -2.97530563	     -6.28029706	     -4.78316231	    -15.05921644	     35.60983777	     32.22136473	     82.05360267	     -5.48888663	      8.40051134
      4.18644068	      0.15218741	     -3.68395060	     99.74450052	      0.26927069	      0.75176689	      0.86854683	     -3.19049468	      1.80289732	      3.51293158	      1.07007825	      0.01867639	     17.90952574	     -5.82066288	      0.00000000	     -1.56066308	     -0.06106404	      3.78775078	      3.76787426	      0.06576181	     20.63756587	     -4.96165430	      0.00000000	     -0.18367936	      0.24085473	     -0.09045817	     -0.34111094	      0.32033679	     -0.09611180	     -0.30176682	      0.58561419	     -0.09611180	     -0.20992714	      0.58561419	     -0.07915090	     -0.17056465	      0.49115097	     -0.07349726	     -0.10495439	      0.37308398	     -0.06784363	     -1.31200330	      2.72459689	     -0.50310119	      0.00000000	      0.00000000	     21.23330242	     -2.48540003	     -0.92507365	      6.72355949	    -12.73620677	    103.84572175	     17.00093425	      9.21426659	     -3.46148272	     -7.06465816	     -4.66093383	    -14.77969561	     35.35817639	     31.79221192	     82.00467382	     -5.28967414	      8.23996932
      4.20338983	      0.25817108	     -3.66937554	    100.14994334	      0.26846934	      0.75178969	      0.86913521	     -3.11769442	      1.89540558	      1.29423051	      1.13556526	      0.01981935	     18.61294457	     -3.14343918	      0.00000000	     -1.42785678	     -0.22774914	      2.66561099	      3.87891539	      0.06769984	     21.39522996	     -2.66969008	      0.00000000	     -0.20049331	      0.25757024	     -0.16200842	     -0.37233613	      0.34256842	     -0.17213394	     -0.32939046	      0.62625628	     -0.17213394	     -0.22914380	      0.62625628	     -0.14175736	     -0.18617809	      0.52523724	     -0.13163184	     -0.11456188	      0.39897630	     -0.12150631	     -1.43210366	      2.91368608	     -0.90104221	      0.00000000	      0.00000000	     21.65577832	     -2.70153850	     -0.54849439	      6.39060731	    -13.08799609	    101.38522638	     17.33378238	     11.38325745	     -3.89822429	     -7.67500732	     -4.18655449	    -14.66466820	     36.92901568	     31.05806466	     79.98944133	     -5.94219909	      7.52284394
      4.22033898	      0.37273976	     -3.75655325	    100.31811680	      0.26798832	      0.75167550	      0.86951637	     -2.98036099	      2.00825499	      1.82940985	      1.06503620	      0.01858839	     18.56638263	     -4.02640180	      0.00000000	     -1.25071462	     -0.25258533	      4.48390394	      3.85836275	      0.06734113	     21.25583591	     -4.88504780	      0.00000000	     -0.19867986	      0.26942156	     -0.17697769	     -0.36896837	      0.35833067	     -0.18803880	     -0.32641114	      0.65507158	     -0.18803880	     -0.22707121	      0.65507158	     -0.15485548	     -0.18449412	      0.54940444	     -0.14379438	     -0.11352567	      0.41733399	     -0.13273327	     -1.41915037	      3.04775056	     -0.98429684	      0.00000000	      0.00000000	     22.02828773	     -3.02970261	     -0.64411891	      6.37518318	    -13.13528954	    102.58097383	     17.29922689	      9.50668637	     -3.92613437	     -8.50271591	     -3.99093525	    -14.16708247	     36.15200613	     30.06061244	     81.14534841	     -5.16244409	      6.96443091
      4.23728814	      0.42421079	     -3.79638239	    100.45971780	      0.26759102	      0.75173129	      0.86977654	     -2.86659266	      2.03875006	      0.77218403	      1.06715888	      0.01862544	     19.05134023	     -2.50976207	      0.00000000	     -1.11094709	     -0.31082621	      3.96538786	      3.86855575	      0.06751904	     21.96817236	     -3.49417516	      0.00000000	     -0.20347193	      0.27519011	     -0.17805377	     -0.37786772	      0.36600284	     -0.18918213	     -0.33428403	      0.66909722	     -0.18918213	     -0.23254807	      0.66909722	     -0.15579704	     -0.18894403	      0.56116766	     -0.14466868	     -0.11626386	      0.42626947	     -0.13354032	     -1.45337965	      3.11300551	     -0.99028163	      0.00000000	      0.00000000	     22.39770286	     -3.25809764	     -0.64861805	      6.14443266	    -13.38603437	    101.04768087	     17.62250783	     10.34026874	     -4.11226612	     -8.63161953	     -3.38340480	    -13.90589743	     37.84173863	     28.69731042	     79.78607451	     -5.48908973	      5.75173064
      4.25423729	      0.41271380	     -3.75364833	    100.64011188	      0.26722947	      0.75187271	      0.86954847	     -2.90191636	      2.02494010	     -0.39328429	      1.04214480	      0.01818886	     19.59497971	     -0.88551924	      0.00000000	     -1.17266971	     -0.32517006	      3.88823191	      3.66736563	      0.06400761	     22.53447938	     -2.48918991	      0.00000000	     -0.21241904	      0.27297315	     -0.20899792	     -0.39448339	      0.36305430	     -0.22206029	     -0.34898324	      0.66370693	     -0.22206029	     -0.24277372	      0.66370693	     -0.18287318	     -0.19725232	      0.55664686	     -0.16981081	     -0.12137624	      0.42283542	     -0.15674844	     -1.51728794	      3.08792692	     -1.16238376	      0.00000000	      0.00000000	     22.79671032	     -3.19688379	     -0.40107425	      5.95852434	    -13.58695132	     99.54730538	     17.96614486	     11.91579689	     -4.42595653	     -8.38892591	     -3.06177853	    -13.69651772	     38.96566450	     27.63286797	     78.28793733	     -5.91712461	      4.95981124
      4.27118644	      0.37863062	     -3.75334408	    100.48610200	      0.26746431	      0.75210322	      0.86925115	     -2.90689838	      2.00402028	      0.40399426	      0.95885125	      0.01673511	     19.49156742	     -1.69119472	      0.00000000	     -1.28549414	     -0.18992774	      7.10109451	      3.30339182	      0.05765506	     21.84796362	     -6.77697256	      0.00000000	     -0.20227830	      0.26471234	     -0.15332028	     -0.37565103	      0.35206741	     -0.16290280	     -0.33232302	      0.64362157	     -0.16290280	     -0.23118387	      0.64362157	     -0.13415525	     -0.18783563	      0.53980139	     -0.12457273	     -0.11558182	      0.41003941	     -0.11499021	     -1.44485365	      2.99447888	     -0.85272143	      0.00000000	      0.00000000	     22.93548172	     -3.33580600	     -0.49435413	      6.31547871	    -13.33422284	    103.80225818	     17.69762915	      7.40869377	     -3.99755912	     -8.47933476	     -2.16745590	    -13.74408113	     43.21307754	     26.02802549	     74.68369091	     -6.62471875	      2.96022801
